<svg width="24" height="24" viewBox="0 0 24 24" fill="none" xmlns="http://www.w3.org/2000/svg">
<path d="M5.63486 20.125H12.6158C13.6332 20.125 14.4362 19.2603 14.361 18.2456L14.3335 17.875H18.3658C19.3832 17.875 20.1862 17.0103 20.111 15.9956L19.5364 8.24561C19.4687 7.33182 18.7075 6.625 17.7912 6.625H11.9594C11.7391 6.625 11.5278 6.66586 11.3329 6.74062C11.5932 7.04611 11.7503 7.44221 11.7503 7.875V8.875H6.20943C5.29313 8.875 4.53197 9.58182 4.46422 10.4956L3.88965 18.2456C3.81443 19.2603 4.61739 20.125 5.63486 20.125Z" fill="#F2F2F3"/>
<path fill-rule="evenodd" clip-rule="evenodd" d="M11.6254 5.625C11.6254 4.17525 12.8006 3 14.2504 3H15.7504C17.2001 3 18.3754 4.17525 18.3754 5.625V5.81535C19.4767 6.06592 20.3223 7.01017 20.4091 8.18092L20.9836 15.9309C21.0965 17.4529 19.892 18.75 18.3658 18.75H15.2146C15.0341 20.0127 13.9474 21 12.6158 21H5.63491C4.10871 21 2.90426 19.7029 3.0171 18.1809L3.59166 10.4309C3.68492 9.17301 4.65417 8.17658 5.87537 8.02112V7.875C5.87537 6.42525 7.05062 5.25 8.50037 5.25H10.0004C10.5929 5.25 11.1399 5.44689 11.5788 5.77756C11.5943 5.7753 11.6098 5.77318 11.6254 5.77119V5.625ZM12.5987 7.5C12.6163 7.62253 12.6254 7.74775 12.6254 7.875V8.06535C13.7267 8.31592 14.5723 9.26017 14.6591 10.4309L15.1461 17H18.3658C18.8746 17 19.276 16.5676 19.2384 16.0603L18.6639 8.31031C18.63 7.85341 18.2494 7.5 17.7913 7.5H12.5987ZM10.8754 8V7.875C10.8754 7.65791 10.7974 7.46126 10.6669 7.30812C10.5051 7.11818 10.267 7 10.0004 7H8.50037C8.01712 7 7.62537 7.39175 7.62537 7.875V8H10.8754ZM13.3754 5.75V5.625C13.3754 5.14175 13.7671 4.75 14.2504 4.75H15.7504C16.2336 4.75 16.6254 5.14175 16.6254 5.625V5.75H13.3754ZM6.20948 9.75C5.75133 9.75 5.37075 10.1034 5.33687 10.5603L4.76231 18.3103C4.72469 18.8176 5.12618 19.25 5.63491 19.25H12.6158C13.1246 19.25 13.526 18.8176 13.4884 18.3103L12.9139 10.5603C12.88 10.1034 12.4994 9.75 12.0413 9.75H6.20948Z" fill="#161617"/>
</svg>
