<svg width="24" height="24" viewBox="0 0 24 24" fill="none" xmlns="http://www.w3.org/2000/svg">
<path d="M5.625 20.125L13.375 20.125C14.3415 20.125 15.125 19.3415 15.125 18.375L15.125 5.625C15.125 4.6585 14.3415 3.875 13.375 3.875L5.625 3.875C4.6585 3.875 3.875 4.6585 3.875 5.625L3.875 18.375C3.875 19.3415 4.6585 20.125 5.625 20.125Z" fill="#F2F2F3"/>
<path d="M5.625 3C4.17525 3 3 4.17525 3 5.625V18.375C3 19.8247 4.17525 21 5.625 21H13.375C14.8247 21 16 19.8247 16 18.375V15.875C16 15.3918 15.6082 15 15.125 15C14.6418 15 14.25 15.3918 14.25 15.875V18.375C14.25 18.8582 13.8582 19.25 13.375 19.25H5.625C5.14175 19.25 4.75 18.8582 4.75 18.375V5.625C4.75 5.14175 5.14175 4.75 5.625 4.75H13.375C13.8582 4.75 14.25 5.14175 14.25 5.625V8.125C14.25 8.60825 14.6418 9 15.125 9C15.6082 9 16 8.60825 16 8.125V5.625C16 4.17525 14.8247 3 13.375 3H5.625Z" fill="#161617"/>
<path d="M18.3688 9.00632C18.0271 8.66459 17.473 8.66456 17.1313 9.00625C16.7896 9.34794 16.7896 9.90196 17.1313 10.2437L18.0128 11.1253H8.625C8.14175 11.1253 7.75 11.5171 7.75 12.0003C7.75 12.4836 8.14175 12.8753 8.625 12.8753H18.0127L17.1313 13.7567C16.7896 14.0984 16.7896 14.6524 17.1313 14.9942C17.473 15.3359 18.027 15.3359 18.3687 14.9942L20.7438 12.6191C21.0855 12.2774 21.0855 11.7234 20.7438 11.3817L18.3688 9.00632Z" fill="#161617"/>
</svg>
